<?xml version="1.0" encoding="iso-8859-1"?>
<!-- Generator: Adobe Illustrator 21.0.0, SVG Export Plug-In . SVG Version: 6.00 Build 0)  -->
<svg version="1.1" id="Capa_1" xmlns="http://www.w3.org/2000/svg" xmlns:xlink="http://www.w3.org/1999/xlink" x="0px" y="0px"
	 viewBox="0 0 509.016 509.016" style="enable-background:new 0 0 509.016 509.016;" xml:space="preserve">
<g>
	<g>
		<g>
			<path d="M411.274,65.888c-0.085,0-0.171,0-0.247,0c-0.077,0-0.136-0.102-0.222-0.128c-30.416-10.562-58.326-27.282-81.988-49.118
				L317.194,4.969c-5.866-5.836-15.073-6.624-21.845-1.869c-12.467,7.053-26.518,10.831-40.841,10.982
				c-14.322-0.151-28.372-3.926-40.841-10.974c-6.766-4.755-15.968-3.975-21.837,1.852l-11.622,11.622
				c-23.641,21.872-51.561,38.602-81.997,49.135c-0.085,0-0.137,0.102-0.222,0.128c-0.085,0.026-0.171,0-0.247,0
				c-1.954,0.836-48.034,20.096-48.034,93.303v51.2c0.002,0.917,0.152,1.827,0.444,2.697c1.527,4.608,11.29,24.653,64.358,24.653
				c6.699,0,14.097-0.324,22.246-1.033c4.304,25.138,6.584,50.581,6.818,76.083c0.7,52.023-3.875,103.984-13.653,155.085
				c-2.822,12.995,4.855,25.967,17.604,29.747c17.382,5.214,50.057,11.435,106.982,11.435s89.6-6.221,106.965-11.435
				c12.752-3.773,20.437-16.742,17.621-29.739c-9.778-51.104-14.353-103.067-13.653-155.093c0.237-25.503,2.519-50.946,6.827-76.083
				c8.149,0.708,15.548,1.033,22.246,1.033c53.06,0,62.831-20.045,64.358-24.653c0.289-0.87,0.436-1.78,0.435-2.697v-51.2
				C459.308,85.941,413.228,66.682,411.274,65.888z M203.914,17.112c15.334,9.053,32.787,13.896,50.594,14.037
				c17.823-0.145,35.288-5.019,50.611-14.123l7.876,7.876c-4.924,13.338-21.965,51.618-58.488,65.365
				c-36.344-13.696-53.487-51.985-58.47-65.348L203.914,17.112z M66.774,208.241v-49.092c0-44.314,18.773-64.674,29.747-72.806
				c15.857,43.431,28.31,88.03,37.248,133.393C82.433,224.002,69.147,211.202,66.774,208.241z M348.374,312.749
				c-0.706,53.204,3.983,106.342,13.995,158.601c0.942,4.306-1.585,8.612-5.803,9.89c-16.282,4.881-47.198,10.709-102.059,10.709
				s-85.777-5.828-102.05-10.709c-4.221-1.275-6.752-5.582-5.811-9.89c10.012-52.258,14.701-105.397,13.995-158.601
				c0-96.427-37.274-203.452-48.64-233.813c25.63-9.938,49.468-23.986,70.579-41.591c8.252,19.558,28.723,56.67,69.231,70.17
				c1.723,0.569,3.584,0.569,5.308,0c40.508-13.5,60.979-50.611,69.231-70.17c21.137,17.614,45.005,31.662,70.665,41.591
				C385.648,109.297,348.374,216.322,348.374,312.749z M442.241,208.07c-2.79,3.516-16.452,15.846-66.995,11.699
				c8.935-45.372,21.388-89.98,37.248-133.419c10.974,8.124,29.747,28.484,29.747,72.798V208.07z"/>
			<path d="M186.248,73.824c0-2.267-0.902-4.441-2.507-6.042c-3.332-3.331-8.734-3.331-12.066,0
				c-9.398,6.614-19.795,11.679-30.797,15.002c-4.477,1.489-6.899,6.326-5.41,10.803c1.489,4.477,6.326,6.899,10.803,5.41
				c2.816-0.939,27.793-9.455,37.47-19.132C185.346,78.265,186.248,76.091,186.248,73.824z"/>
			<path d="M368.138,82.767c-11.002-3.321-21.4-8.386-30.797-15.002c-3.348-3.234-8.671-3.188-11.962,0.104
				c-3.292,3.292-3.338,8.614-0.104,11.962c9.677,9.694,34.654,18.21,37.47,19.149c4.477,1.489,9.314-0.933,10.803-5.41
				S372.615,84.256,368.138,82.767z"/>
			<path d="M163.913,151.218c-3.202-1.329-6.89-0.59-9.331,1.872c-1.592,1.614-2.481,3.792-2.475,6.059
				c-0.028,0.546,0.03,1.093,0.171,1.621c0.093,0.551,0.233,1.094,0.418,1.621c0.255,0.528,0.54,1.041,0.853,1.536
				c0.315,0.447,0.657,0.875,1.024,1.28c3.365,3.3,8.752,3.3,12.117,0h0.009c0.367-0.405,0.709-0.833,1.024-1.28
				c0.32-0.478,0.578-0.994,0.768-1.536c0.26-0.507,0.431-1.056,0.503-1.621c0.106-0.534,0.166-1.077,0.179-1.621
				C169.195,155.682,167.115,152.548,163.913,151.218z"/>
			<path d="M185.388,138.268c-2.107-4.218-7.234-5.93-11.452-3.823c-4.218,2.107-5.93,7.234-3.823,11.452l8.533,17.067
				c2.107,4.218,7.234,5.93,11.452,3.823s5.93-7.234,3.823-11.452L185.388,138.268z"/>
			<path d="M202.412,121.201c-2.107-4.218-7.234-5.93-11.452-3.823c-4.218,2.107-5.93,7.234-3.823,11.452l17.067,34.133
				c2.107,4.218,7.234,5.93,11.452,3.823c4.218-2.107,5.93-7.234,3.823-11.452L202.412,121.201z"/>
			<path d="M331.308,107.949h-34.133c-9.426,0-17.067,7.641-17.067,17.067v38.101c0.001,5.707,2.854,11.035,7.603,14.199
				l17.067,11.383c5.725,3.829,13.193,3.829,18.918,0l17.067-11.375c4.755-3.164,7.612-8.497,7.612-14.208v-38.101
				C348.374,115.59,340.733,107.949,331.308,107.949z M331.308,163.125l-17.067,11.383l-17.067-11.375v-38.118h34.133V163.125z"/>
		</g>
	</g>
</g>
<g>
</g>
<g>
</g>
<g>
</g>
<g>
</g>
<g>
</g>
<g>
</g>
<g>
</g>
<g>
</g>
<g>
</g>
<g>
</g>
<g>
</g>
<g>
</g>
<g>
</g>
<g>
</g>
<g>
</g>
</svg>
